<svg xmlns="http://www.w3.org/2000/svg" xmlns:xlink="http://www.w3.org/1999/xlink" xmlns:a="http://ns.adobe.com/AdobeSVGViewerExtensions/3.0/" version="1.1" x="0px" y="0px" viewBox="-0.147 -0.063 100 125" enable-background="new -0.147 -0.063 100 100" xml:space="preserve"><path d="M49.847,64.414c-7.042,0-12.904-5.028-14.204-11.689H0c1.447,26.281,23.213,47.147,49.853,47.147  c26.644,0,48.407-20.866,49.854-47.147H64.049C62.75,59.386,56.889,64.414,49.847,64.414z"/><path d="M49.847,35.459c7.042,0,12.902,5.028,14.202,11.689h35.657C98.26,20.866,76.498,0,49.853,0C23.213,0,1.447,20.866,0,47.148  h35.643C36.943,40.487,42.806,35.459,49.847,35.459z"/><circle cx="49.846" cy="49.937" r="10.341"/></svg>